<?xml version="1.0" encoding="UTF-8"?>
<svg version="1.1" xmlns="http://www.w3.org/2000/svg" width="2270" height="2270">
<path d="M0 0 C749.1 0 1498.2 0 2270 0 C2270 749.1 2270 1498.2 2270 2270 C1520.9 2270 771.8 2270 0 2270 C0 1520.9 0 771.8 0 0 Z " fill="#1D71F7" transform="translate(0,0)"/>
<path d="M0 0 C0.85320247 -0.00367669 1.70640494 -0.00735338 2.58546203 -0.01114148 C5.44947243 -0.02216993 8.31344653 -0.02602077 11.17747498 -0.02983093 C13.22915766 -0.0360963 15.28083922 -0.04274316 17.33251953 -0.04974365 C24.07567048 -0.07078063 30.81882163 -0.08114683 37.56199646 -0.09111023 C39.88466338 -0.09515815 42.20733019 -0.09927508 44.52999687 -0.10346031 C55.44418893 -0.12251247 66.35837424 -0.13674253 77.27257973 -0.14507228 C89.86287189 -0.15484023 102.45298804 -0.18114824 115.0432182 -0.22157317 C124.77927281 -0.25175874 134.51527704 -0.26654355 144.25137752 -0.26985329 C150.06389007 -0.2722013 155.87621457 -0.28112933 161.68867683 -0.30631447 C167.16096803 -0.32964223 172.63294802 -0.33380938 178.10527611 -0.32355309 C180.10830344 -0.32305874 182.11134634 -0.32934927 184.11432648 -0.34310913 C208.6866389 -0.50239971 208.6866389 -0.50239971 218.07106018 8.41294861 C220.97900807 11.66750213 223.35033265 15.21488711 225.71043396 18.87763977 C226.25865311 19.70870743 226.80687225 20.53977509 227.3717041 21.39602661 C229.11052724 24.03581682 230.83485991 26.68468171 232.55809021 29.33467102 C234.83391057 32.81004436 237.11510771 36.28186508 239.39793396 39.75263977 C239.94287506 40.58210114 240.48781616 41.4115625 241.04927063 42.26615906 C251.60979618 59.53919099 251.60979618 59.53919099 268.62059021 69.14717102 C273.62349695 69.58700383 278.61990068 69.55100478 283.63789368 69.52571106 C285.17210022 69.52900442 286.70630439 69.5336199 288.24050343 69.53943872 C292.4445754 69.55162863 296.64844524 69.54529478 300.85251689 69.53593373 C305.39113876 69.52912911 309.92972374 69.53967421 314.46833801 69.54821777 C322.33012825 69.5607779 330.19186348 69.56275936 338.05366135 69.55786133 C349.43134277 69.5510505 360.80894136 69.56357573 372.18660797 69.58136851 C390.66118045 69.61001295 409.13574398 69.62752976 427.6103363 69.63594055 C428.71569788 69.63644773 429.82105946 69.63695491 430.95991684 69.63747746 C438.80514119 69.64100435 446.65036567 69.64413367 454.49559021 69.64717102 C463.45376091 69.65063967 472.41193149 69.65428891 481.37010193 69.65840149 C482.47350846 69.6589041 483.576915 69.65940672 484.7137581 69.65992457 C503.11745875 69.66867111 521.52112865 69.68911235 539.92480862 69.71788359 C551.27248349 69.73505584 562.62007132 69.74165184 573.96775748 69.73457754 C581.74414231 69.73039586 589.52047229 69.7367556 597.29684435 69.75137627 C601.78212462 69.75942795 606.26726884 69.7625559 610.75254822 69.75255394 C614.86201612 69.74346661 618.9712315 69.74822253 623.08067788 69.76376837 C624.56378119 69.76694726 626.04690601 69.76510318 627.52999376 69.75760299 C640.46675359 69.69686477 650.02216605 71.06013831 659.62059021 80.14717102 C667.41662664 88.96900172 667.03399342 101.79895198 666.80809021 112.89717102 C666.79455505 114.17849915 666.7810199 115.45982727 666.76707458 116.77998352 C666.73211726 119.90283797 666.68305111 123.02476643 666.62059021 126.14717102 C667.70888123 126.12622375 668.79717224 126.10527649 669.91844177 126.08369446 C674.01107785 126.01051586 678.1036579 125.96509258 682.19676208 125.92744446 C683.95792918 125.90750429 685.71903161 125.88034191 687.47996521 125.84541321 C702.43843008 125.55644286 714.87720578 126.85132183 726.62059021 137.14717102 C729.33325557 139.94990535 731.52080483 142.86425784 733.62059021 146.14717102 C734.12848083 146.89998352 734.63637146 147.65279602 735.15965271 148.42842102 C745.07023877 165.92420424 736.58303955 191.57545707 733.22723389 210.09812927 C731.04600798 222.21216058 729.1220506 234.36747684 727.18309021 246.52217102 C726.80290701 248.89499082 726.42261705 251.26779352 726.04222107 253.64057922 C724.12953136 265.58964846 722.24068539 277.54231541 720.37449646 289.49873352 C720.10346855 291.23381668 720.10346855 291.23381668 719.82696533 293.00395203 C718.97106339 298.48646696 718.11822122 303.96942543 717.27122498 309.45332336 C715.75663442 319.21845318 714.14970554 328.9466342 712.28611755 338.65132141 C710.192192 349.65019155 708.65900558 360.72577899 707.12059021 371.81318665 C706.23679355 378.09988087 705.25367239 384.34505472 704.08494568 390.58491516 C703.34764236 394.65326337 702.77022055 398.74246312 702.18309021 402.83467102 C701.31736765 408.73588575 700.38461194 414.60368362 699.24559021 420.45967102 C697.82590721 427.81752539 696.61431251 435.20133746 695.42918396 442.60029602 C695.21179316 443.95183129 694.99434869 445.30335792 694.77685547 446.65487671 C693.38767599 455.30012946 692.01895894 463.94854142 690.65786743 472.59825611 C689.55734795 479.58928505 688.44772773 486.57883937 687.33274841 493.56757641 C686.61553571 498.06627638 685.90355956 502.56569637 685.20188904 507.06684875 C684.50745124 511.52002671 683.80006837 515.97097431 683.08377266 520.42068672 C682.8172329 522.09077561 682.55527008 523.76160237 682.29823112 525.43317986 C680.17765199 539.19568135 676.89414039 549.05555658 665.99559021 558.39717102 C653.86450402 564.68736386 642.77664047 565.81389535 629.83543396 561.80342102 C619.81060811 556.63874768 611.82363693 547.70416232 603.89402771 539.82685852 C603.30639271 539.24487827 602.71875771 538.66289803 602.11331558 538.06328201 C599.00588049 534.98560142 595.90406523 531.90239161 592.80711365 528.81416321 C589.64267893 525.66069109 586.46010365 522.5262228 583.27284813 519.3958416 C580.79162097 516.95221141 578.32425062 514.49492592 575.86023331 512.03395462 C574.69405819 510.87375198 573.52298109 509.71845129 572.3465538 508.56864548 C560.33990853 496.8146251 550.46228344 483.3577382 550.04978943 465.93965149 C550.09775237 449.08208848 554.18128777 437.9347397 565.17723083 424.86445618 C567.80219351 421.74131892 570.36066339 418.56359038 572.93309021 415.39717102 C573.47240173 414.73620422 574.01171326 414.07523743 574.56736755 413.39424133 C578.71472656 408.30090755 582.79047462 403.15595972 586.80809021 397.95967102 C587.36085632 397.2529425 587.91362244 396.54621399 588.48313904 395.81806946 C594.23241249 388.32804126 595.39993707 382.59989418 594.62059021 373.14717102 C593.62194635 368.2084232 590.89091174 364.6114898 586.95091248 361.57783508 C578.41858423 356.3395487 566.90180826 354.94261114 557.24559021 352.77217102 C554.58576018 352.16570304 551.92712744 351.55414443 549.26902771 350.94013977 C548.61305603 350.78865982 547.95708435 350.63717987 547.28123474 350.48110962 C541.44765268 349.1247014 535.65669131 347.62923119 529.87059021 346.08467102 C522.1092758 344.01972794 514.32689745 342.11586434 506.49559021 340.33467102 C495.61963981 337.85950059 484.77122072 335.28221138 473.93309021 332.64717102 C472.73470016 332.35590836 472.73470016 332.35590836 471.51210022 332.0587616 C461.13456149 329.53259564 450.78623298 326.91757704 440.46360779 324.17451477 C433.30502038 322.28682539 426.10446446 320.64212416 418.87767029 319.03852844 C412.33396332 317.57291057 405.85060048 315.93385828 399.37059021 314.20967102 C388.95079047 311.441439 378.47455122 308.98605392 367.96043396 306.60420227 C363.83626322 305.66697646 359.72677119 304.68768405 355.62449646 303.65888977 C354.68299744 303.42500549 353.74149841 303.19112122 352.77146912 302.95014954 C351.0306999 302.51519217 349.29186954 302.07235562 347.5556488 301.61958313 C339.73570396 299.67945915 332.62204788 298.82214898 325.40965271 302.87373352 C321.39678869 305.73005158 318.47072765 309.58176432 316.62059021 314.14717102 C315.70313297 322.9816582 317.15498676 331.23844208 319.30809021 339.77217102 C319.58064636 340.90098694 319.85320251 342.02980286 320.13401794 343.19282532 C321.93019276 350.57058852 323.83030256 357.9219434 325.79954529 365.25532532 C327.52781585 371.70180886 329.07894444 378.18277759 330.60520935 384.67964172 C332.37545038 392.18625621 334.23947513 399.66764339 336.12059021 407.14717102 C338.37837494 416.12943752 340.58368012 425.12042617 342.70652771 434.13545227 C344.70471981 442.58235525 346.81909014 450.99963057 348.94676208 459.41474915 C352.2699938 472.60602422 355.36869321 485.85103192 358.49888611 499.08912659 C359.33020087 502.60364725 360.16275804 506.11787294 360.99559021 509.6320343 C361.4130596 511.39551634 361.82972327 513.15918931 362.24559021 514.92304993 C364.68685884 525.27364748 367.20937894 535.59277293 369.95982361 545.86607361 C371.1124147 550.17339115 372.18772494 554.48747107 373.18309021 558.83467102 C375.1904021 566.81931163 377.70520374 572.44470822 384.62059021 577.14717102 C390.19162808 579.80607546 396.61224505 580.19109392 402.58543396 578.63545227 C408.54523391 576.05245229 413.28278028 571.3618422 418.13230896 567.14326477 C422.64492451 563.23098034 427.35339325 559.58188157 432.06980896 555.92060852 C434.49349183 554.03872157 436.88738076 552.12581874 439.26512146 550.18623352 C445.7020587 544.9610469 451.83968176 540.23607437 459.62059021 537.14717102 C460.35922302 536.83135071 461.09785583 536.5155304 461.85887146 536.19013977 C474.94705931 531.37280676 490.05847947 533.45004434 502.43309021 539.08467102 C510.01470171 542.62637962 515.65901467 548.40383015 521.62059021 554.14717102 C522.23145477 554.73515472 522.84231934 555.32313843 523.47169495 555.92893982 C527.49231161 559.81258656 531.47658651 563.73125938 535.44090271 567.6723175 C536.81701338 569.03681887 538.19760207 570.3968181 539.58250427 571.75239563 C550.88639591 582.81846445 560.30992693 592.39839828 560.99559021 608.89717102 C560.74099074 620.12783664 556.7161213 629.34324569 548.62059021 637.14717102 C540.33393942 643.39782154 532.57776367 645.45421698 522.39342308 645.40443993 C521.48089588 645.407946 520.56836868 645.41145208 519.62818915 645.41506439 C516.56597425 645.42437903 513.5039495 645.41945485 510.44172668 645.41459656 C508.22580613 645.41833279 506.00988689 645.4229342 503.79396975 645.4283272 C497.70082139 645.44057612 491.60772786 645.44029449 485.51457 645.43793845 C479.61916461 645.43757262 473.72377817 645.44655104 467.82838014 645.45516423 C454.27970215 645.4745058 440.7310393 645.48013253 427.18234913 645.48127834 C416.71780701 645.48219754 406.25327082 645.48631481 395.78873062 645.4926796 C392.77613883 645.4944747 389.76354703 645.49625433 386.75095522 645.49802935 C385.62752707 645.4986925 385.62752707 645.4986925 384.48140341 645.49936904 C363.41418962 645.5116777 342.3469779 645.51957015 321.27976036 645.51868248 C320.48547149 645.51865132 319.69118263 645.51862016 318.8728244 645.51858806 C314.84708018 645.51842185 310.82133597 645.51822377 306.79559176 645.51801865 C305.59631236 645.51795881 305.59631236 645.51795881 304.3728051 645.51789777 C302.75598076 645.51781689 301.13915643 645.5177333 299.52233209 645.51764699 C274.37325828 645.51642177 249.22423842 645.53142909 224.07518005 645.55879211 C195.81637353 645.58952601 167.55760246 645.60672378 139.29877818 645.60486567 C136.28430025 645.60471641 133.26982232 645.604619 130.25534439 645.60455704 C129.51311143 645.60453373 128.77087848 645.60451042 128.00615361 645.6044864 C116.0709579 645.60442491 104.13580908 645.617187 92.20062731 645.63442157 C80.20045319 645.65139129 68.20034755 645.65334145 56.20016806 645.64020292 C49.70139188 645.63366971 43.20278534 645.63356915 36.70402527 645.65090942 C30.75132669 645.66662919 24.79893242 645.66378725 18.84624131 645.64634116 C16.69616483 645.64326888 14.5460657 645.64691216 12.39601593 645.65806131 C-4.68135857 645.74073047 -18.2507028 644.42652464 -31.37550354 632.30342102 C-37.77751161 625.58475449 -42.49852656 616.36857499 -42.50821096 606.95688146 C-42.51148315 606.12219563 -42.51475534 605.28750979 -42.5181267 604.42753044 C-42.51664307 603.51387115 -42.51515945 602.60021186 -42.51363087 601.65886593 C-42.5159831 600.68166612 -42.51833533 599.70446632 -42.52075884 598.6976544 C-42.52745739 595.39744461 -42.52699036 592.09727412 -42.52658081 588.79705811 C-42.5298789 586.41731028 -42.53360435 584.03756302 -42.53772229 581.65781647 C-42.54670297 575.78679727 -42.55097093 569.91578518 -42.55324126 564.04476057 C-42.55620242 557.01409767 -42.56489934 549.98344478 -42.57365554 542.95278712 C-42.59450469 525.95815595 -42.60497055 508.96352304 -42.61378514 491.96888206 C-42.61799106 483.929819 -42.62321313 475.8907567 -42.62846967 467.85169427 C-42.64636044 440.33548252 -42.66135658 412.81927056 -42.66878986 385.30305386 C-42.66926462 383.57540574 -42.66974051 381.84775762 -42.67021753 380.1201095 C-42.6704539 379.26334744 -42.67069028 378.40658537 -42.67093382 377.52386082 C-42.67213502 373.1830469 -42.67335047 368.84223298 -42.67457581 364.50141907 C-42.67481596 363.63996989 -42.67505611 362.7785207 -42.67530353 361.890967 C-42.68319652 333.96052059 -42.70662804 306.03011664 -42.73913175 278.09968876 C-42.77343004 248.57329471 -42.79314101 219.04692551 -42.7964341 189.52051121 C-42.79685165 186.27909631 -42.79733121 183.03768143 -42.79785728 179.79626656 C-42.79798048 178.99813323 -42.79810367 178.19999991 -42.79823059 177.37768073 C-42.80056264 164.53347616 -42.81622287 151.68932091 -42.83669913 138.84513392 C-42.85695567 125.9339052 -42.86243525 113.02273572 -42.8529285 100.11149406 C-42.84771284 92.44188785 -42.85359399 84.77247886 -42.87546317 77.10290103 C-42.89056284 71.37424105 -42.88472975 65.64575406 -42.87079265 59.91709817 C-42.86840759 57.60074866 -42.87278641 55.28438022 -42.8846213 52.96805971 C-42.96683742 35.81388998 -41.77965188 24.07623898 -29.53565979 11.20967102 C-21.1217082 3.20952033 -11.3845987 -0.00263038 0 0 Z " fill="#ABCAFC" transform="translate(786.3794097900391,575.8528289794922)"/>
<path d="M0 0 C0.79109574 -0.00367669 1.58219149 -0.00735338 2.39725983 -0.01114148 C5.06270809 -0.02220311 7.7281174 -0.02602632 10.39358521 -0.02983093 C12.29869715 -0.03609362 14.20380787 -0.04274024 16.10891724 -0.04974365 C21.29484815 -0.06716932 26.48076983 -0.07770926 31.66672277 -0.08594918 C34.90405915 -0.09109506 38.14139263 -0.09717091 41.37872696 -0.10346031 C51.50001632 -0.12251508 61.62129837 -0.13674671 71.74260223 -0.14507228 C83.44043237 -0.15485267 95.13807368 -0.18119195 106.83583724 -0.22157317 C115.86856338 -0.25168879 124.90123524 -0.26653674 133.93401062 -0.26985329 C139.33329836 -0.27220862 144.73238444 -0.28123175 150.1316185 -0.30631447 C155.20907551 -0.32952119 160.28619703 -0.33385834 165.36369324 -0.32355309 C167.22936745 -0.32305584 169.09505777 -0.3294316 170.96068192 -0.34310913 C173.50381695 -0.36071368 176.0457329 -0.35377916 178.58886719 -0.34057617 C179.70160973 -0.35703004 179.70160973 -0.35703004 180.83683193 -0.37381631 C184.22650418 -0.33119945 186.11102733 -0.07968377 188.87980843 1.94393635 C191.18701826 5.24135179 190.96671579 8.50687839 190.92532349 12.38545227 C190.93945534 13.58394051 190.93945534 13.58394051 190.95387268 14.80664062 C190.98250998 17.35791169 190.98560261 19.90825234 190.98391724 22.45967102 C190.98753594 25.00024266 190.99721327 27.540135 191.02467346 30.08056641 C191.04133316 31.65877813 191.04443959 33.23721228 191.03166199 34.81546021 C191.08053017 39.97907946 192.01726711 43.55447504 194.42141724 48.14717102 C198.9461007 52.55278387 203.40072516 54.39897304 209.68313599 54.38667297 C210.70769897 54.39040421 211.73226196 54.39413544 212.78787231 54.39797974 C214.43178955 54.39177864 214.43178955 54.39177864 216.10891724 54.38545227 C218.43965226 54.40086604 220.77038155 54.41716923 223.10110474 54.4342804 C226.76822589 54.45076129 230.43492599 54.45964504 234.1020813 54.45259094 C237.64651046 54.44997565 241.18965892 54.47805253 244.73391724 54.51045227 C245.82986206 54.50024551 246.92580688 54.49003876 248.05496216 54.47952271 C249.07952515 54.49271042 250.10408813 54.50589813 251.15969849 54.51948547 C252.05728882 54.5201149 252.95487915 54.52074432 253.87966919 54.52139282 C257.63977175 55.44712982 259.02438563 57.13260847 261.42141724 60.14717102 C261.91156089 63.17857699 262.09452107 65.64473107 262.04960632 68.67134094 C262.05670071 69.52807026 262.0637951 70.38479958 262.07110447 71.26749039 C262.08870459 74.13799673 262.07056902 77.00715258 262.05252075 79.87763977 C262.0576591 81.93608212 262.06493974 83.99452008 262.07420349 86.052948 C262.09274558 91.64648673 262.07975721 97.2395498 262.06011319 102.83306885 C262.04373108 108.69265805 262.05253981 114.552217 262.05763245 120.41181946 C262.06215673 130.26101776 262.04626973 140.11002639 262.01834106 149.95918274 C261.98635889 161.32499181 261.98627629 172.6904574 262.00355583 184.05629063 C262.01946255 195.00358929 262.0126561 205.95076278 261.99561882 216.89805603 C261.98876929 221.54846046 261.98975945 226.19876393 261.99716377 230.84916687 C262.00486717 236.3387733 261.99256857 241.82799286 261.96531487 247.31753349 C261.95846962 249.32453705 261.95829122 251.331577 261.9655304 253.33857918 C262.01563103 269.04792846 260.80960558 284.01883504 249.53860474 296.17842102 C235.76694531 308.92395681 218.72948834 308.59168243 201.025177 308.55122375 C198.76553511 308.55693306 196.5058961 308.56389949 194.2462616 308.57202148 C188.1393513 308.58989696 182.03258511 308.58879615 175.92565656 308.5830791 C170.82313634 308.57998195 165.72064359 308.58608491 160.61812729 308.59211785 C147.90017241 308.60694059 135.18231926 308.60336477 122.46437066 308.59125454 C111.4236199 308.58130323 100.38303627 308.59430155 89.34231127 308.61818873 C77.98865056 308.6425672 66.63508983 308.6517919 55.28139538 308.64553601 C48.91365989 308.64216207 42.54606281 308.64461185 36.17834663 308.66178703 C30.19870882 308.67721412 24.21939201 308.67334765 18.23976707 308.65448189 C16.04394214 308.6507856 13.84809361 308.65393455 11.65229034 308.66436768 C8.65902981 308.67750655 5.66684347 308.66609329 2.67362976 308.64837646 C1.8014613 308.65798147 0.92929283 308.66758648 0.03069502 308.67748255 C-3.99738979 308.62829624 -6.08461816 308.44917896 -9.59434605 306.30334568 C-12.57905425 303.06000674 -12.70409865 300.41681485 -12.71001053 296.18486977 C-12.71385167 295.15437842 -12.71769282 294.12388707 -12.72165036 293.06216872 C-12.72078388 291.92648809 -12.7199174 290.79080747 -12.71902466 289.62071228 C-12.72199578 288.41702889 -12.7249669 287.2133455 -12.72802806 285.97318685 C-12.73521616 282.62613795 -12.73788798 279.27914037 -12.73862553 275.93208742 C-12.74047495 272.32464299 -12.74802167 268.71720972 -12.75476074 265.10977173 C-12.76834856 257.21937097 -12.77436933 249.32897529 -12.7787714 241.43856478 C-12.78153276 236.51355538 -12.78576989 231.58854795 -12.79027557 226.66353989 C-12.80246825 213.03241664 -12.81276794 199.40129498 -12.81615067 185.7701664 C-12.81637023 184.89758425 -12.8165898 184.0250021 -12.81681602 183.12597807 C-12.81714343 181.81394599 -12.81714343 181.81394599 -12.81747746 180.4754082 C-12.81792093 178.70290987 -12.8183675 176.93041154 -12.81881714 175.15791321 C-12.81903857 174.27868991 -12.81926 173.39946661 -12.81948814 172.49360017 C-12.82343757 158.24168755 -12.84089602 143.989826 -12.86417666 129.73793311 C-12.88787575 115.11206145 -12.90035184 100.48621544 -12.90151858 85.86032426 C-12.9024361 77.6458288 -12.90820764 69.43139991 -12.9263382 61.21692276 C-12.94171966 54.22327399 -12.9468712 47.22971237 -12.93860009 40.23604991 C-12.93468677 36.66682429 -12.93565621 33.0977743 -12.94965744 29.52857018 C-12.96468865 25.66150278 -12.95655013 21.79468408 -12.94607544 17.92759705 C-12.95413184 16.79637787 -12.96218825 15.66515868 -12.97048879 14.49966013 C-12.96389894 13.46395329 -12.9573091 12.42824645 -12.95051956 11.36115456 C-12.95111665 10.4685394 -12.95171374 9.57592424 -12.95232892 8.65626013 C-12.49216509 5.56701884 -11.38696989 3.67233147 -9.57858276 1.14717102 C-6.5281465 -0.37804711 -3.3471005 -0.00082686 0 0 Z " fill="#CADEFD" transform="translate(1277.5785827636719,1345.8528289794922)"/>
<path d="M0 0 C0.79280459 -0.00638882 1.58560919 -0.01277764 2.40243816 -0.01936007 C5.0621795 -0.03463532 7.72043721 -0.01413301 10.38012695 0.00622559 C12.28553766 0.00272514 14.19094545 -0.00293258 16.09634399 -0.0105896 C21.27408999 -0.02485819 26.45130624 -0.00775566 31.62900162 0.01569557 C37.04303051 0.03577525 42.45703678 0.02992652 47.87109375 0.02758789 C56.96371213 0.02764149 66.05612292 0.04741711 75.14868164 0.07946777 C85.66653482 0.11636188 96.18411598 0.12514364 106.70202541 0.11817026 C116.81266904 0.11186879 126.92321922 0.12261297 137.03384399 0.14213562 C141.33998952 0.15031835 145.64608734 0.15301756 149.95223999 0.15144348 C155.02152617 0.15056565 160.09055315 0.16475345 165.15977097 0.19067001 C167.02219766 0.19784279 168.88465191 0.19991011 170.74708939 0.19655228 C173.28561456 0.19284798 175.82337889 0.20754801 178.36181641 0.22705078 C179.47251259 0.21905889 179.47251259 0.21905889 180.60564709 0.21090555 C184.72902165 0.26572021 187.23628541 0.62939164 190.1809082 3.62145996 C191.73032202 7.22495088 191.35154316 11.33347416 191.3918457 15.20349121 C191.41991975 16.70805928 191.44858425 18.21261643 191.4777832 19.71716309 C191.51894946 22.07368598 191.55586389 24.43000613 191.58227539 26.78674316 C191.61006444 29.07191349 191.65593338 31.35617665 191.7043457 33.64099121 C191.70922501 34.68353813 191.70922501 34.68353813 191.71420288 35.74714661 C191.83943317 40.79118677 192.90393011 44.20694557 195.1809082 48.62145996 C199.61627233 52.82936951 203.32076234 54.86846781 209.43676758 54.87683105 C210.48465454 54.88378998 211.5325415 54.8907489 212.61218262 54.8979187 C213.73829956 54.89692169 214.8644165 54.89592468 216.0246582 54.89489746 C218.40877753 54.91518071 220.79289208 54.93603138 223.17700195 54.95739746 C226.93632032 54.98003506 230.69545049 54.99648254 234.45483398 55.00231934 C238.08262133 55.0118174 241.70956011 55.04555772 245.3371582 55.08239746 C247.02633362 55.07482925 247.02633362 55.07482925 248.74963379 55.06710815 C249.79752075 55.0803714 250.84540771 55.09363464 251.92504883 55.1072998 C253.30593689 55.11157486 253.30593689 55.11157486 254.71472168 55.11593628 C257.93126097 55.77526872 259.11563703 57.12877725 261.1809082 59.62145996 C262.76475012 62.78914379 262.32514001 66.19910946 262.3213501 69.67770386 C262.32580678 70.94163528 262.32580678 70.94163528 262.3303535 72.23110068 C262.33906584 75.07135404 262.34055092 77.91156537 262.34204102 80.75183105 C262.34666765 82.78189179 262.35169209 84.81195166 262.35708618 86.8420105 C262.37023297 92.37144674 262.37666035 97.90087082 262.38109684 103.43032026 C262.38402579 106.88615171 262.38813041 110.34197983 262.39260101 113.7978096 C262.40628611 124.61323449 262.41594603 135.42865177 262.4198029 146.24408472 C262.42427689 158.72172432 262.44178987 171.19925402 262.4708035 183.67686021 C262.49245218 193.32287042 262.502509 202.96884979 262.50384402 212.61488402 C262.50489039 218.3743249 262.51076154 224.13366259 262.52866364 229.89307785 C262.54519782 235.31852461 262.54727386 240.74379126 262.53852463 246.1692543 C262.53775693 248.15411615 262.54206144 250.13898788 262.55198288 252.12382507 C262.62830887 268.35364402 261.56369392 284.42325189 249.9699707 297.02770996 C239.97728695 305.92948937 227.87410399 308.77136244 214.8815918 308.76863098 C213.94163046 308.77230767 213.00166912 308.77598436 212.03322411 308.77977246 C208.88192576 308.79079035 205.73066041 308.79464985 202.5793457 308.79846191 C200.32073868 308.80472774 198.06213269 308.81137464 195.80352783 308.81837463 C188.3876619 308.83939416 180.9717958 308.84977149 173.5559082 308.85974121 C171.00372303 308.86378882 168.45153797 308.86790575 165.89935303 308.87209129 C155.28773283 308.88895319 144.67611477 308.90359049 134.06448364 308.91084003 C131.31357827 308.91274984 128.56267291 308.9146702 125.81176758 308.91662598 C125.12806524 308.91710972 124.4443629 308.91759346 123.73994231 308.91809186 C112.65349359 308.92640014 101.56715248 308.95175459 90.4807508 308.98420665 C79.09568713 309.0172613 67.71069751 309.03495417 56.32557869 309.03848428 C49.93424534 309.04083886 43.5430824 309.04985322 37.15179443 309.07494545 C31.14355006 309.09815429 25.13558922 309.10248834 19.12731171 309.09218407 C16.92019459 309.09168693 14.71306385 309.09805944 12.50598907 309.11174011 C9.49705752 309.12935068 6.48915565 309.12240623 3.48022461 309.10920715 C2.16480966 309.12566102 2.16480966 309.12566102 0.82282066 309.14244729 C-3.26068282 309.09908366 -5.30583028 308.94544358 -8.83779907 306.71597576 C-11.77735578 303.60843497 -11.9450081 301.92406917 -11.95331287 297.75097179 C-11.95777072 296.71550471 -11.96222856 295.68003762 -11.96682149 294.61319274 C-11.96663713 293.46681737 -11.96645277 292.32044201 -11.96626282 291.139328 C-11.96993951 289.92833193 -11.97361619 288.71733586 -11.9774043 287.46964294 C-11.98654336 284.09753364 -11.99114349 280.72547307 -11.99379361 277.353356 C-11.99769218 273.72067037 -12.00727078 270.08799888 -12.01600647 266.45532227 C-12.03578296 257.67741719 -12.04583833 248.89951094 -12.05473426 240.12158915 C-12.05911499 235.99050602 -12.06448233 231.85942417 -12.06972313 227.72834206 C-12.08673615 214.00032537 -12.1012313 200.27230948 -12.10847187 186.54428387 C-12.11038184 182.98057237 -12.11230216 179.41686088 -12.11425781 175.85314941 C-12.11474155 174.96737938 -12.11522529 174.08160935 -12.11572369 173.1689978 C-12.12402762 158.81354092 -12.14937031 144.45816727 -12.18183849 130.10274675 C-12.21488254 115.37294596 -12.2329182 100.64318751 -12.23611611 85.91334945 C-12.23828361 77.63957009 -12.24706731 69.36591211 -12.27257729 61.09216881 C-12.29424804 54.04724292 -12.30235264 47.0024679 -12.2926105 39.95751246 C-12.28805527 36.36191306 -12.29002237 32.76662518 -12.30937195 29.17106819 C-12.33015572 25.2754292 -12.32005215 21.38022301 -12.30683899 17.48454285 C-12.31780824 16.34485965 -12.32877748 15.20517645 -12.34007913 14.0309574 C-12.30366194 9.60324729 -12.2137249 6.44119012 -10.27730083 2.41885853 C-6.91361988 -0.04060494 -4.01476992 -0.06787132 0 0 Z " fill="#CBDEFD" transform="translate(669.819091796875,1345.3785400390625)"/>
<path d="M0 0 C0.85320247 -0.00367669 1.70640494 -0.00735338 2.58546203 -0.01114148 C5.44947243 -0.02216993 8.31344653 -0.02602077 11.17747498 -0.02983093 C13.22915766 -0.0360963 15.28083922 -0.04274316 17.33251953 -0.04974365 C24.07567048 -0.07078063 30.81882163 -0.08114683 37.56199646 -0.09111023 C39.88466338 -0.09515815 42.20733019 -0.09927508 44.52999687 -0.10346031 C55.44418893 -0.12251247 66.35837424 -0.13674253 77.27257973 -0.14507228 C89.86287189 -0.15484023 102.45298804 -0.18114824 115.0432182 -0.22157317 C124.77927281 -0.25175874 134.51527704 -0.26654355 144.25137752 -0.26985329 C150.06389007 -0.2722013 155.87621457 -0.28112933 161.68867683 -0.30631447 C167.16096803 -0.32964223 172.63294802 -0.33380938 178.10527611 -0.32355309 C180.10830344 -0.32305874 182.11134634 -0.32934927 184.11432648 -0.34310913 C208.6866389 -0.50239971 208.6866389 -0.50239971 218.07106018 8.41294861 C220.97900807 11.66750213 223.35033265 15.21488711 225.71043396 18.87763977 C226.25865311 19.70870743 226.80687225 20.53977509 227.3717041 21.39602661 C229.11052724 24.03581682 230.83485991 26.68468171 232.55809021 29.33467102 C234.83391057 32.81004436 237.11510771 36.28186508 239.39793396 39.75263977 C239.94287506 40.58210114 240.48781616 41.4115625 241.04927063 42.26615906 C251.60979618 59.53919099 251.60979618 59.53919099 268.62059021 69.14717102 C273.62349695 69.58700383 278.61990068 69.55100478 283.63789368 69.52571106 C285.17210022 69.52900442 286.70630439 69.5336199 288.24050343 69.53943872 C292.4445754 69.55162863 296.64844524 69.54529478 300.85251689 69.53593373 C305.39113876 69.52912911 309.92972374 69.53967421 314.46833801 69.54821777 C322.33012825 69.5607779 330.19186348 69.56275936 338.05366135 69.55786133 C349.43134277 69.5510505 360.80894136 69.56357573 372.18660797 69.58136851 C390.66118045 69.61001295 409.13574398 69.62752976 427.6103363 69.63594055 C428.71569788 69.63644773 429.82105946 69.63695491 430.95991684 69.63747746 C438.80514119 69.64100435 446.65036567 69.64413367 454.49559021 69.64717102 C463.45376091 69.65063967 472.41193149 69.65428891 481.37010193 69.65840149 C482.47350846 69.6589041 483.576915 69.65940672 484.7137581 69.65992457 C503.11745875 69.66867111 521.52112865 69.68911235 539.92480862 69.71788359 C551.27248349 69.73505584 562.62007132 69.74165184 573.96775748 69.73457754 C581.74414231 69.73039586 589.52047229 69.7367556 597.29684435 69.75137627 C601.78212462 69.75942795 606.26726884 69.7625559 610.75254822 69.75255394 C614.86201612 69.74346661 618.9712315 69.74822253 623.08067788 69.76376837 C624.56378119 69.76694726 626.04690601 69.76510318 627.52999376 69.75760299 C640.46675359 69.69686477 650.02216605 71.06013831 659.62059021 80.14717102 C667.41662664 88.96900172 667.03399342 101.79895198 666.80809021 112.89717102 C666.79455505 114.17849915 666.7810199 115.45982727 666.76707458 116.77998352 C666.73211726 119.90283797 666.68305111 123.02476643 666.62059021 126.14717102 C660.78582906 126.34584021 654.95306058 126.49052021 649.1157074 126.58662415 C647.13293645 126.62670624 645.15039976 126.68119027 643.16844177 126.75068665 C626.65063472 127.31511422 626.65063472 127.31511422 621.66966248 124.44941711 C619.71790791 122.45429023 618.18420991 120.45079408 616.62059021 118.14717102 C614.02603454 116.13788559 614.02603454 116.13788559 611.55809021 114.77217102 C610.78336365 114.31068665 610.00863708 113.84920227 609.21043396 113.37373352 C602.64187646 110.26283299 596.79353198 109.85787816 589.63261604 109.88990211 C588.63784852 109.88639604 587.643081 109.88288997 586.61816901 109.87927765 C583.27623865 109.86995469 579.93448221 109.87488934 576.59254456 109.87974548 C574.17578294 109.87600969 571.75902254 109.87140846 569.34226406 109.86601484 C564.08325557 109.85632135 558.82429778 109.85287102 553.56528473 109.85492706 C545.74486739 109.85797704 537.92449078 109.8496532 530.10408136 109.83917781 C515.32445725 109.81983373 500.544847 109.81420946 485.76521172 109.8130637 C474.35288547 109.81214476 462.94056468 109.80802884 451.5282402 109.80166245 C448.24372415 109.79986738 444.9592081 109.79808775 441.67469203 109.79631269 C440.85816517 109.79587059 440.0416383 109.7954285 439.20036819 109.794973 C416.23266035 109.78266441 393.2649544 109.77477191 370.29724312 109.77565956 C369.43127608 109.77569072 368.56530905 109.77572188 367.67310059 109.77575398 C363.28397016 109.77592019 358.89483973 109.77611828 354.50570931 109.77632339 C353.63400382 109.77636328 352.76229833 109.77640317 351.86417752 109.77644427 C350.10137715 109.77652515 348.33857678 109.77660874 346.5757764 109.77669506 C319.14424133 109.7779208 291.71275568 109.76290318 264.28123474 109.73554993 C233.46615311 109.70483547 202.65110395 109.68761701 171.83600605 109.68947637 C168.55086128 109.68962563 165.26571652 109.68972305 161.98057175 109.689785 C160.76723094 109.68981997 160.76723094 109.68981997 159.5293782 109.68985564 C146.50734914 109.6899172 133.48536297 109.67714093 120.46334667 109.65992047 C107.37888267 109.64297514 94.29448147 109.64098156 81.21001257 109.65413912 C73.43555148 109.66153534 65.66128108 109.65785033 57.88684015 109.63825444 C52.08380979 109.62486264 46.28092903 109.63234685 40.47790013 109.64800088 C38.1287038 109.65108502 35.77948691 109.64738558 33.43031479 109.63628073 C30.23995201 109.62219624 27.05057564 109.63271811 23.86024666 109.64939308 C22.94574428 109.63945672 22.03124191 109.62952036 21.08902735 109.6192829 C12.90051795 109.70991992 5.53053828 112.29114583 -0.37940979 118.14717102 C-2.20646764 120.97059577 -2.20646764 120.97059577 -3.62940979 124.08467102 C-4.12956604 125.10431946 -4.62972229 126.1239679 -5.14503479 127.17451477 C-7.62041971 133.13580566 -7.50648598 138.738375 -7.45928955 145.09759521 C-7.45591058 146.10819459 -7.45253161 147.11879396 -7.44905025 148.16001755 C-7.436633 151.5521751 -7.4170865 154.94425555 -7.39772034 158.33638 C-7.38761541 160.76803888 -7.37804089 163.19970001 -7.36895752 165.63136292 C-7.35143574 170.19697612 -7.33243611 174.76257662 -7.31120531 179.32817412 C-7.2694403 188.34065875 -7.24155413 197.3531415 -7.21871948 206.36569214 C-7.21504976 207.78913974 -7.21137561 209.21258733 -7.20769709 210.63603491 C-7.20027709 213.51903967 -7.19291727 216.40204458 -7.18557894 219.28504956 C-7.16661471 226.70011218 -7.14663666 234.11517159 -7.1252594 241.53022766 C-7.12312004 242.27405789 -7.12098067 243.01788813 -7.11877648 243.78425867 C-7.08377842 255.75052482 -7.03030568 267.71664525 -6.97062852 279.68281054 C-6.90960897 292.02512646 -6.8724978 304.36736705 -6.85554916 316.70982224 C-6.84535097 323.61596077 -6.82458841 330.52170518 -6.77559471 337.42768669 C-6.3593072 397.5829083 -6.3593072 397.5829083 -13.37940979 426.14717102 C-13.70940979 426.47717102 -14.03940979 426.80717102 -14.37940979 427.14717102 C-14.5912865 428.68327718 -14.74870384 430.22704001 -14.87940979 431.77217102 C-15.81731829 442.0305452 -15.81731829 442.0305452 -16.87940979 446.02998352 C-17.44103441 448.40811279 -17.67163281 450.71321213 -17.87940979 453.14717102 C-18.14518722 456.26056382 -18.59791192 459.12537925 -19.37940979 462.14717102 C-19.37940979 462.80717102 -19.37940979 463.46717102 -19.37940979 464.14717102 C-20.03940979 464.14717102 -20.69940979 464.14717102 -21.37940979 464.14717102 C-21.04940979 466.12717102 -20.71940979 468.10717102 -20.37940979 470.14717102 C-21.03940979 470.14717102 -21.69940979 470.14717102 -22.37940979 470.14717102 C-22.04940979 472.12717102 -21.71940979 474.10717102 -21.37940979 476.14717102 C-22.03940979 476.14717102 -22.69940979 476.14717102 -23.37940979 476.14717102 C-23.17315979 476.93092102 -22.96690979 477.71467102 -22.75440979 478.52217102 C-22.34070892 482.52127947 -22.90618101 485.4863915 -23.77003479 489.37373352 C-25.41047907 496.83985811 -26.51132229 504.37467104 -27.13331604 511.99092102 C-27.37581824 514.11570224 -27.84918631 516.07886125 -28.37940979 518.14717102 C-28.37940979 518.80717102 -28.37940979 519.46717102 -28.37940979 520.14717102 C-29.03940979 520.14717102 -29.69940979 520.14717102 -30.37940979 520.14717102 C-29.88440979 523.11717102 -29.88440979 523.11717102 -29.37940979 526.14717102 C-30.03940979 526.14717102 -30.69940979 526.14717102 -31.37940979 526.14717102 C-31.10097229 527.60123352 -31.10097229 527.60123352 -30.81690979 529.08467102 C-30.60034729 530.60060852 -30.60034729 530.60060852 -30.37940979 532.14717102 C-30.70940979 532.47717102 -31.03940979 532.80717102 -31.37940979 533.14717102 C-31.37940979 534.07529602 -31.37940979 535.00342102 -31.37940979 535.95967102 C-31.37940979 538.66248354 -31.64883542 540.59016074 -32.37940979 543.14717102 C-32.37940979 543.80717102 -32.37940979 544.46717102 -32.37940979 545.14717102 C-33.03940979 545.14717102 -33.69940979 545.14717102 -34.37940979 545.14717102 C-33.88440979 548.11717102 -33.88440979 548.11717102 -33.37940979 551.14717102 C-34.03940979 551.14717102 -34.69940979 551.14717102 -35.37940979 551.14717102 C-34.88440979 554.11717102 -34.88440979 554.11717102 -34.37940979 557.14717102 C-35.03940979 557.14717102 -35.69940979 557.14717102 -36.37940979 557.14717102 C-36.17315979 557.99279602 -35.96690979 558.83842102 -35.75440979 559.70967102 C-35.31737033 563.71586611 -36.21666187 566.31694258 -37.37940979 570.14717102 C-37.5478807 573.4393653 -37.5478807 573.4393653 -37.37940979 576.14717102 C-38.03940979 576.14717102 -38.69940979 576.14717102 -39.37940979 576.14717102 C-38.88440979 579.11717102 -38.88440979 579.11717102 -38.37940979 582.14717102 C-39.03940979 582.14717102 -39.69940979 582.14717102 -40.37940979 582.14717102 C-40.19378479 583.01342102 -40.00815979 583.87967102 -39.81690979 584.77217102 C-39.37273046 588.1986973 -39.65986487 590.78929473 -40.37940979 594.14717102 C-41.96508343 591.33326113 -42.62969254 589.31625516 -42.63240945 586.09153408 C-42.63792894 585.28695 -42.64344843 584.48236592 -42.64913517 583.65340051 C-42.64296922 582.33344846 -42.64296922 582.33344846 -42.6366787 580.98683071 C-42.64018477 580.04508675 -42.64369084 579.10334279 -42.64730316 578.13306114 C-42.6566632 574.95341604 -42.65168197 571.77395226 -42.64683533 568.59429932 C-42.65056929 566.30117138 -42.65516978 564.00804473 -42.66056597 561.7149201 C-42.6728432 555.39450315 -42.67252995 549.07413894 -42.67017722 542.75371277 C-42.66884296 536.64311829 -42.67878287 530.53253669 -42.687403 524.42194984 C-42.70676568 510.37418886 -42.71237211 496.32644245 -42.71351711 482.27866971 C-42.71443564 471.42931327 -42.71854942 460.57996256 -42.72491837 449.73060799 C-42.72671343 446.60935023 -42.72849305 443.48809247 -42.73026812 440.3668347 C-42.73071022 439.5909045 -42.73115231 438.81497431 -42.73160781 438.01553108 C-42.7439203 416.18276588 -42.75180854 394.35000267 -42.75092125 372.51723385 C-42.75089009 371.69372215 -42.75085893 370.87021045 -42.75082683 370.02174386 C-42.75066061 365.8477168 -42.75046253 361.67368974 -42.75025742 357.49966269 C-42.75021753 356.67066783 -42.75017764 355.84167296 -42.75013654 354.98755704 C-42.75005566 353.31112514 -42.74997207 351.63469323 -42.74988575 349.95826132 C-42.7486606 323.88326946 -42.76366522 297.80832963 -42.79103088 271.73335266 C-42.82175535 242.44583581 -42.83896309 213.15835314 -42.83710444 183.87081915 C-42.83695518 180.74736091 -42.83685776 177.62390266 -42.83679581 174.50044441 C-42.8367725 173.73135725 -42.83674919 172.96227009 -42.83672517 172.16987725 C-42.83666363 159.79431135 -42.84943453 147.41879061 -42.86666034 135.04323813 C-42.88361855 122.60249168 -42.88558927 110.16181129 -42.87244169 97.72105967 C-42.86570321 90.98154502 -42.86583004 84.24220379 -42.88314819 77.50270271 C-42.89884101 71.33225953 -42.89605366 65.16211023 -42.87857993 58.99167437 C-42.87550167 56.76011775 -42.87917336 54.5285394 -42.89030008 52.29700839 C-42.96893697 35.40631837 -41.58317995 23.86977695 -29.53565979 11.20967102 C-21.1217082 3.20952033 -11.3845987 -0.00263038 0 0 Z " fill="#CBDEFD" transform="translate(786.3794097900391,575.8528289794922)"/>
<path d="M0 0 C0.74920265 0.00086648 1.4984053 0.00173296 2.27031106 0.0026257 C3.45567304 -0.00183098 3.45567304 -0.00183098 4.66498172 -0.0063777 C7.33354011 -0.01510308 10.00205384 -0.01657617 12.67062539 -0.01806521 C14.57558955 -0.0226907 16.48055278 -0.02771499 18.38551491 -0.03311038 C23.57564104 -0.04626296 28.76575421 -0.05268497 33.95589441 -0.05712104 C37.19540316 -0.06004736 40.43490833 -0.06415133 43.67441529 -0.06862521 C53.80104967 -0.0823081 63.92767592 -0.09197069 74.0543189 -0.0958271 C85.76061474 -0.10030898 97.46679388 -0.1178596 109.17305422 -0.1468277 C118.21000722 -0.16841721 127.24692733 -0.17852993 136.28390586 -0.17986822 C141.68652239 -0.18091828 147.08902934 -0.18686846 152.49161881 -0.20468783 C157.57312617 -0.22112122 162.65444103 -0.22334711 167.73596543 -0.21454883 C169.60324526 -0.21377589 171.47053524 -0.2181548 173.33778924 -0.22800708 C175.88299239 -0.2406509 178.42750599 -0.23489133 180.97270364 -0.22442508 C181.71521412 -0.23248148 182.4577246 -0.24053789 183.2227354 -0.24883842 C186.31017168 -0.21905517 188.51705104 -0.01179585 191.27178639 1.43466687 C193.86102492 4.30667522 193.33325038 7.79916325 193.28073281 11.46728635 C193.28778237 12.28751782 193.29483193 13.1077493 193.30209512 13.95283628 C193.3315544 17.45838719 193.31503204 20.96338294 193.30270547 24.46899533 C193.30030837 27.03125689 193.32133983 29.59263492 193.34323281 32.15478635 C193.33191323 32.93528852 193.32059365 33.71579068 193.30893105 34.51994443 C193.35964321 40.11047189 194.60216089 44.50675689 197.81198281 49.1430676 C202.47985169 52.85831017 206.07438985 54.25941721 211.97018594 54.30078244 C213.54697121 54.31617566 213.54697121 54.31617566 215.15561074 54.33187985 C216.29002602 54.33918118 217.42444131 54.34648252 218.59323281 54.3540051 C220.98516686 54.38206304 223.37709386 54.41072742 225.76901406 54.4399426 C229.54814698 54.48129302 233.32714673 54.51817297 237.1064164 54.54443479 C240.74813278 54.57194808 244.38924652 54.61780883 248.03073281 54.6665051 C249.16514809 54.66975797 250.29956338 54.67301084 251.46835488 54.67636228 C253.04514016 54.70121198 253.04514016 54.70121198 254.65377969 54.72656369 C255.57960854 54.73465055 256.5054374 54.7427374 257.45932168 54.75106931 C260.26759269 55.21898091 261.12686984 55.88539939 262.81198281 58.1430676 C264.02824133 61.79184316 263.95954314 65.14519367 263.95724648 68.94409299 C263.9622844 70.13497525 263.9622844 70.13497525 263.96742409 71.34991574 C263.97693774 73.98020097 263.97887791 76.61042247 263.97995156 79.24072385 C263.9831656 81.07336063 263.98652979 82.90599715 263.99003762 84.73863339 C263.99603115 88.58626008 263.99787746 92.43386431 263.99728554 96.28149533 C263.99718431 101.19159757 264.01079538 106.10155393 264.02805775 111.01162171 C264.03922861 114.80108913 264.04120314 118.59052197 264.04067582 122.38000417 C264.04184986 124.1887416 264.04623904 125.99748009 264.05400819 127.80620122 C264.11642791 143.84958532 263.40165151 157.98646744 251.80417031 170.3305676 C240.22075647 180.86920294 225.36469313 182.75368248 210.28878945 182.62548947 C208.79070845 182.6276819 207.2926292 182.63168857 205.79455727 182.63734555 C202.59983395 182.64583238 199.40544866 182.64223989 196.21074265 182.6289227 C191.15424607 182.60840162 186.09808233 182.61864001 181.04158181 182.6331799 C170.31918449 182.65979593 159.59689892 182.65321919 148.87448281 182.6430676 C137.27067394 182.63209955 125.66703895 182.62690888 114.06325972 182.66036201 C109.04059445 182.67370236 104.01843738 182.66782608 98.9958027 182.64699674 C95.87281462 182.63799753 92.75002171 182.64549537 89.6270501 182.65740895 C88.18350786 182.65953506 86.73993638 182.65484587 85.29644364 182.64270329 C74.82376713 182.47196767 74.82376713 182.47196767 65.81198281 187.1430676 C61.62230896 192.54942615 62.37942591 199.12227883 62.41354531 205.65478635 C62.41067513 206.85996411 62.40780495 208.06514188 62.4048478 209.30684018 C62.40281042 211.8477131 62.40831739 214.38860182 62.42086953 216.92944455 C62.43696881 220.82717811 62.42098713 224.72388125 62.40182656 228.62158322 C62.40380822 231.09098656 62.40765031 233.56038925 62.41354531 236.02978635 C62.40747262 237.19853803 62.40139992 238.36728971 62.39514321 239.5714581 C62.40459969 240.65300672 62.41405617 241.73455533 62.42379922 242.84887815 C62.42737939 244.27734319 62.42737939 244.27734319 62.43103188 245.73466611 C62.64200274 248.12040063 62.64200274 248.12040063 63.86215371 249.76993394 C66.83754288 251.86530066 69.88192714 251.55469255 73.39019936 251.52160764 C74.55869028 251.52840283 74.55869028 251.52840283 75.75078708 251.5353353 C78.3694985 251.54699255 80.9877024 251.53729903 83.6064164 251.52783322 C85.48049916 251.53193683 87.35457936 251.53739645 89.22865456 251.54411435 C93.26873319 251.55585669 97.30867514 251.5583175 101.34876794 251.55375791 C107.73539136 251.54696264 114.12183415 251.56279166 120.50842446 251.58215451 C134.06793414 251.62005706 147.62742828 251.63281547 161.18698281 251.6430676 C175.81745409 251.65413352 190.44784262 251.66944983 205.07825691 251.71378016 C211.42854444 251.73216044 217.7786265 251.73602004 224.12893432 251.72884488 C228.07888283 251.72732463 232.02872827 251.73809697 235.97864884 251.75222325 C237.81163744 251.75623109 239.64464555 251.75509208 241.4776265 251.74845052 C243.9786034 251.74008411 246.47886528 251.75004175 248.97979897 251.76452756 C250.06963981 251.75418666 250.06963981 251.75418666 251.18149763 251.74363685 C256.75412896 251.80657981 259.913751 253.24483579 263.81198281 257.1430676 C264.07940835 259.10299802 264.07940835 259.10299802 264.10251015 261.52929807 C264.11526986 262.43719083 264.12802956 263.34508359 264.14117593 264.28048825 C264.1445144 265.75547284 264.1445144 265.75547284 264.14792031 267.2602551 C264.15457711 268.26895658 264.16123391 269.27765805 264.16809243 270.31692624 C264.17823085 272.45377899 264.18290908 274.59066348 264.18258828 276.72754025 C264.18695613 279.99809119 264.22324919 283.26728736 264.26120156 286.53759885 C264.26707048 288.61181297 264.27103937 290.68603352 264.27292031 292.7602551 C264.28729134 293.7395297 264.30166238 294.71880429 264.31646889 295.72775388 C264.2707531 302.51980362 264.2707531 302.51980362 261.90817422 305.72949338 C258.83844789 307.79957438 257.16402739 308.26843545 253.50092667 308.27170205 C252.59024513 308.2749265 251.67956358 308.27815094 250.74128562 308.2814731 C249.23081061 308.2791502 249.23081061 308.2791502 247.68982095 308.27678037 C246.62512719 308.27904592 245.56043344 308.28131148 244.46347624 308.28364569 C240.87211474 308.29000945 237.28079075 308.28915481 233.68942422 308.28833127 C231.12422291 308.29132128 228.55902206 308.29472344 225.9938218 308.29850888 C219.73491201 308.30644764 213.47601612 308.30956424 207.21710177 308.31012126 C202.13089269 308.31059591 197.04468672 308.31264808 191.95847863 308.31582189 C177.54746109 308.32463175 163.136451 308.32924077 148.72543074 308.32849141 C147.9480066 308.32845146 147.17058245 308.3284115 146.3696 308.32837033 C145.59122979 308.32832945 144.81285958 308.32828857 144.01090239 308.32824645 C131.3942926 308.32783994 118.77771265 308.33740984 106.16111149 308.3515087 C93.21560467 308.36586128 80.2701124 308.37277949 67.32459742 308.37191492 C60.0530216 308.37158255 52.78147705 308.37434705 45.50990838 308.38509297 C38.67278543 308.39513186 31.83572968 308.39487406 24.99860352 308.38757634 C22.48469162 308.3865267 19.97077565 308.38891569 17.45687073 308.3949368 C14.03387218 308.40260625 10.61110521 308.39804543 7.18811196 308.39030576 C6.18559006 308.39544932 5.18306816 308.40059288 4.15016681 308.40589231 C3.23426977 308.40129352 2.31837273 308.39669472 1.37472123 308.39195657 C0.58446821 308.39217394 -0.20578482 308.3923913 -1.0199849 308.39261526 C-3.51651258 308.1052567 -5.07152361 307.49124348 -7.18801719 306.1430676 C-9.4620034 302.73208828 -9.43901433 301.53917475 -9.44198447 297.5346539 C-9.45044395 295.78317296 -9.45044395 295.78317296 -9.45907432 293.99630857 C-9.45502586 292.71370145 -9.45097739 291.43109433 -9.44680625 290.10962033 C-9.44951624 288.7461083 -9.45307722 287.38259773 -9.45742637 286.01908994 C-9.46655778 282.31206641 -9.46300145 278.60515402 -9.4566682 274.89812851 C-9.4516049 271.01371246 -9.45630124 267.12930593 -9.45944053 263.2448895 C-9.46308225 256.71377983 -9.45827887 250.18271533 -9.44875938 243.65161252 C-9.43790628 236.11897009 -9.44137659 228.5864362 -9.45241219 221.05379647 C-9.46151737 214.57804001 -9.46275364 208.10231606 -9.45753485 201.62655526 C-9.45442875 197.76305266 -9.45396754 193.89960085 -9.46060783 190.03610158 C-9.4664266 186.39583884 -9.46230234 182.75571432 -9.45081931 179.11546636 C-9.44695273 177.15648832 -9.45282188 175.19749846 -9.45907432 173.23852658 C-9.39381748 159.49910734 -7.09757548 148.25899073 2.43698281 137.8305676 C10.47860164 130.31373772 21.48793902 125.90078092 32.45309609 125.88478208 C34.39602547 125.87454007 34.39602547 125.87454007 36.37820596 125.86409116 C37.79623602 125.86651005 39.21426581 125.86909428 40.63229531 125.87182736 C42.13919513 125.86743591 43.64609253 125.86213223 45.15298623 125.85598874 C48.38810873 125.84452151 51.62316601 125.83903175 54.85830849 125.83810735 C59.97720411 125.83616091 65.09596543 125.81807708 70.21481484 125.79734921 C82.92677276 125.7482431 95.63876695 125.71727651 108.35080117 125.69604611 C118.23625874 125.67951319 128.12160055 125.65668023 138.0069806 125.61302537 C143.09224271 125.59128058 148.17728472 125.58318813 153.26259011 125.58541811 C156.42927841 125.58374819 159.59582362 125.56968066 162.76246041 125.55220532 C164.2269426 125.54661929 165.69145462 125.54610816 167.1559388 125.55114293 C177.43157038 125.73256478 177.43157038 125.73256478 186.81198281 122.1430676 C190.42755191 118.24205883 191.92796812 115.7689181 191.98898476 110.51318479 C192.00182 109.55168515 192.01465523 108.59018552 192.02787942 107.59954953 C192.03526635 106.55687924 192.04265328 105.51420896 192.05026406 104.4399426 C192.06237168 102.8341232 192.06237168 102.8341232 192.0747239 101.19586301 C192.08857259 98.92616517 192.09929122 96.65644643 192.10714883 94.38671994 C192.1243443 90.9209841 192.16822245 87.45620627 192.21237344 83.99072385 C192.22250172 81.78630379 192.2310174 79.5818756 192.23776406 77.3774426 C192.26402619 75.82558255 192.26402619 75.82558255 192.29081887 74.2423718 C192.27321843 68.38206041 191.9604832 64.64392529 187.81198281 60.1430676 C183.26065093 56.50761831 179.80320723 55.56660899 174.10751504 55.65773129 C173.3511647 55.65375787 172.59481436 55.64978445 171.81554431 55.64569062 C169.29120251 55.63712643 166.76789148 55.65690093 164.24362344 55.67651486 C162.4298352 55.67596594 160.61604673 55.67359006 158.80226296 55.66952634 C154.90132048 55.66435402 151.00065924 55.67141017 147.09974831 55.68777776 C140.93102948 55.7128991 134.76258818 55.7066116 128.59384316 55.69529843 C113.27360123 55.67210035 97.95343956 55.69053644 82.63321084 55.71679807 C70.72326296 55.7367394 58.81353662 55.7453336 46.90358847 55.71986169 C40.77167823 55.7080419 34.64039888 55.71970908 28.50855416 55.74911439 C24.69399703 55.7623697 20.8796846 55.75495173 17.06513566 55.74183393 C15.29705027 55.73997742 13.52893184 55.74669306 11.76091737 55.76263738 C9.34542812 55.78323076 6.93191945 55.77305897 4.51645058 55.75538754 C3.46906708 55.77549015 3.46906708 55.77549015 2.40052432 55.79599887 C-3.14142635 55.70283539 -5.44298815 53.94180003 -9.18801719 50.1430676 C-9.92973167 47.90503049 -9.92973167 47.90503049 -9.91677696 45.61572385 C-9.92600684 44.75132688 -9.93523673 43.8869299 -9.94474632 42.99633908 C-9.92318977 42.07538449 -9.90163322 41.1544299 -9.87942344 40.2055676 C-9.87804878 39.24787473 -9.87667411 38.29018186 -9.87525779 37.30346799 C-9.86621254 35.28276506 -9.84261895 33.2620817 -9.80544883 31.24170041 C-9.75069999 28.15337928 -9.74391982 25.0677608 -9.74465781 21.9790051 C-9.72990914 20.012836 -9.71242278 18.04668514 -9.69192344 16.0805676 C-9.68858497 15.15961301 -9.6852465 14.23865842 -9.68180686 13.28979611 C-9.51253713 5.64509216 -8.45505842 0.04809264 0 0 Z " fill="#CDDFFD" transform="translate(971.1880171895027,1345.856932401657)"/>
<path d="M0 0 C1.45703087 -0.02331642 1.45703087 -0.02331642 2.9434967 -0.04710388 C3.99763763 -0.03855377 5.05177856 -0.03000366 6.13786316 -0.02119446 C7.25715714 -0.03156235 8.37645111 -0.04193024 9.52966309 -0.0526123 C13.23040931 -0.07971936 16.92997325 -0.07001012 20.63078308 -0.05757141 C23.20522391 -0.06347953 25.77966198 -0.0707259 28.35409546 -0.07925415 C33.7519059 -0.0911423 39.14926677 -0.08484018 44.54704285 -0.06513977 C50.77248693 -0.04280357 56.99689253 -0.06034168 63.22223836 -0.09818906 C69.22539903 -0.13328207 75.2280376 -0.13459383 81.23131371 -0.12230873 C83.77855737 -0.12082344 86.32582369 -0.12849569 88.87301064 -0.14555931 C92.43991296 -0.16557015 96.00465342 -0.14710353 99.57145691 -0.11885071 C101.14355927 -0.13942535 101.14355927 -0.13942535 102.74742126 -0.16041565 C108.9031511 -0.06320077 112.60660709 0.95629718 117.40928173 4.86760235 C121.55205705 9.35043482 122.42529168 12.71743865 122.44316101 18.7947998 C122.44925211 19.50396551 122.45534322 20.21313122 122.4616189 20.9437868 C122.47823566 23.31434759 122.47347512 25.68437046 122.46867371 28.05497742 C122.47601492 29.75700437 122.4846013 31.45902633 122.49433899 33.16104126 C122.51656067 37.78101377 122.51948527 42.40080796 122.51759148 47.02082658 C122.51747178 50.88005426 122.52603573 54.73924416 122.53436899 58.59846133 C122.55360623 67.70573712 122.55648606 76.81292125 122.54972839 85.92021179 C122.54309037 95.30826591 122.56594159 104.69592685 122.60304213 114.08390123 C122.63375741 122.14947612 122.64509707 130.21492466 122.64120531 138.28055686 C122.63913933 143.09533921 122.64459334 147.90981575 122.6690979 152.72454262 C122.69139212 157.25470723 122.68946511 161.78423387 122.66917038 166.31440163 C122.66576481 167.97359718 122.67082994 169.6328359 122.68515396 171.29197311 C122.81590207 187.56401742 122.81590207 187.56401742 117.04875183 193.64164734 C112.93129567 197.39579855 109.34474926 197.76536762 103.90007019 197.7676239 C102.63122482 197.77143066 101.36237946 197.77523743 100.05508423 197.77915955 C99.3767346 197.77935341 98.69838497 197.77954727 97.99947929 197.77974701 C95.13359553 197.78317557 92.26793595 197.80456251 89.40213108 197.82497787 C84.0711743 197.8628876 78.74045463 197.89427376 73.40934753 197.89213562 C69.69673347 197.89134323 65.98493878 197.91493821 62.27253914 197.95401764 C60.86576088 197.96440375 59.45888717 197.96605669 58.0520916 197.95836639 C46.85181599 197.90328783 39.26050129 199.56857186 30.91593933 207.22270203 C29.5723825 208.57367153 28.24198088 209.93782771 26.92375183 211.31352234 C26.21017517 212.03654541 25.49659851 212.75956848 24.76139832 213.50450134 C22.51159412 215.78856745 20.27973624 218.08920963 18.04875183 220.39164734 C15.785703 222.70467644 13.51910546 225.01414784 11.25041199 227.32164001 C9.84627221 228.75218153 8.44606575 230.18659658 7.05021667 231.62522888 C6.42195984 232.26969971 5.793703 232.91417053 5.14640808 233.57817078 C4.5947699 234.1471106 4.04313171 234.71605042 3.47477722 235.30223083 C1.36013862 237.28843799 0.08564352 237.63683538 -2.82624817 238.01664734 C-5.95124817 237.64164734 -5.95124817 237.64164734 -8.11439419 235.69229889 C-10.62678488 231.51971434 -10.51147572 228.24037124 -10.46591187 223.45622253 C-10.47285739 222.52851185 -10.47980292 221.60080117 -10.48695892 220.64497805 C-10.50526222 217.53489965 -10.4949552 214.42558117 -10.48469543 211.31547546 C-10.49175216 209.08641996 -10.50049613 206.85736926 -10.51080322 204.62832642 C-10.53333321 198.57261647 -10.53034914 192.51716744 -10.52148175 186.4614315 C-10.51637754 181.40896146 -10.52365975 176.35654069 -10.53095382 171.30407572 C-10.54893685 158.70586203 -10.54253038 146.10780458 -10.52478402 133.50960714 C-10.51008487 122.5686035 -10.52471863 111.62787443 -10.55355418 100.68690616 C-10.58294649 89.45098527 -10.59341282 78.21518798 -10.58437198 66.97921896 C-10.57943606 60.67171451 -10.58169472 54.36442357 -10.6021595 48.0569458 C-10.62047667 42.12739963 -10.61460599 36.19836497 -10.5899601 30.26884651 C-10.58493993 28.09076761 -10.58847304 25.91265001 -10.60110855 23.73460197 C-10.61697627 20.76483258 -10.60214705 17.79676055 -10.57943726 14.82707214 C-10.59127298 13.96180169 -10.60310871 13.09653123 -10.6153031 12.20504045 C-10.54897907 7.94646267 -10.315675 6.13750418 -7.72143936 2.60766125 C-4.78468464 0.52343665 -3.53781328 0.013403 0 0 Z " fill="#1D71F7" transform="translate(1345.9512481689453,1400.3583526611328)"/>
<path d="M0 0 C0.9783934 -0.01416962 1.9567868 -0.02833923 2.96482849 -0.04293823 C4.03191544 -0.0379834 5.09900238 -0.03302856 6.19842529 -0.02792358 C7.89177757 -0.04325638 7.89177757 -0.04325638 9.61933899 -0.05889893 C13.3578299 -0.08673813 17.09558511 -0.0847734 20.83416748 -0.08016968 C23.43245722 -0.08794246 26.03074442 -0.09661156 28.62902832 -0.10614014 C34.07982687 -0.12107578 39.53034002 -0.12075161 44.98114014 -0.10995483 C51.26845053 -0.09789175 57.55486389 -0.1224537 63.84202123 -0.16509497 C69.90228161 -0.2046764 75.96207491 -0.21066213 82.02248383 -0.20362473 C84.59485731 -0.20465054 87.1672452 -0.21511473 89.7395401 -0.23524857 C93.34241785 -0.25998165 96.94323565 -0.24639421 100.54608154 -0.22323608 C101.60507156 -0.23852356 102.66406158 -0.25381104 103.75514221 -0.26956177 C109.89720828 -0.18249789 113.66250586 0.79872366 118.49535751 4.64913368 C122.59317986 9.33963674 123.50685988 13.60438173 123.51872253 19.71887207 C123.52680084 20.77165161 123.52680084 20.77165161 123.53504235 21.84569943 C123.54929161 24.18553215 123.54222597 26.52479671 123.53509521 28.86465454 C123.54080044 30.54712375 123.54776529 32.22958909 123.55589294 33.91204834 C123.57382403 38.47412407 123.57265591 43.03600744 123.56695056 47.59810781 C123.56385822 51.4101624 123.56995176 55.22218007 123.57598931 59.0342294 C123.59003315 68.02981907 123.58847479 77.02531377 123.5770874 86.02090454 C123.56560979 95.29248343 123.57967617 104.56377293 123.60648388 113.83531368 C123.62865737 121.80324267 123.63527443 129.77108094 123.62940747 137.73903859 C123.62604021 142.49451128 123.6284374 147.24979854 123.64565849 152.00524521 C123.66115154 156.4787261 123.657146 160.95177924 123.63835335 165.42524338 C123.6346738 167.06347066 123.63775743 168.70172979 123.64823914 170.33992767 C123.73944988 185.77868232 123.73944988 185.77868232 119.13104248 192.52139282 C114.55258405 196.87651182 111.17578775 197.64480282 104.98236084 197.64736938 C103.71351547 197.65117615 102.4446701 197.65498291 101.13737488 197.65890503 C100.45902525 197.65909889 99.78067562 197.65929276 99.08176994 197.65949249 C96.21588618 197.66292106 93.3502266 197.68430799 90.48442173 197.70472336 C85.15346495 197.74263309 79.82274528 197.77401925 74.49163818 197.7718811 C70.77902411 197.77108871 67.06722943 197.79468369 63.35482979 197.83376312 C61.94805153 197.84414923 60.54117782 197.84580217 59.13438225 197.83811188 C47.93410664 197.78303332 40.34279194 199.44831734 31.99822998 207.10244751 C30.65467315 208.45341701 29.32427153 209.8175732 28.00604248 211.19326782 C27.29246582 211.91629089 26.57888916 212.63931396 25.84368896 213.38424683 C23.59388477 215.66831294 21.36202689 217.96895512 19.13104248 220.27139282 C16.86799365 222.58442192 14.60139611 224.89389332 12.33270264 227.2013855 C10.92856286 228.63192701 9.5283564 230.06634207 8.13250732 231.50497437 C7.50425049 232.14944519 6.87599365 232.79391602 6.22869873 233.45791626 C5.67706055 234.02685608 5.12542236 234.5957959 4.55706787 235.18197632 C2.42679399 237.18286916 1.19906552 237.51399901 -1.74395752 237.83389282 C-4.86895752 237.52139282 -4.86895752 237.52139282 -7.03252411 236.07360077 C-9.76161978 232.28080348 -9.42337138 228.94001867 -9.37689209 224.37356567 C-9.38313205 223.43783675 -9.38937201 222.50210782 -9.39580107 221.53802347 C-9.41178713 218.39485567 -9.39910467 215.25245734 -9.38653564 212.10928345 C-9.39195425 209.85904995 -9.39907544 207.60882 -9.40777588 205.3585968 C-9.42604306 199.24090347 -9.41892756 193.12347934 -9.40625954 187.00578117 C-9.39614951 180.61079037 -9.40551966 174.21582299 -9.4118042 167.8208313 C-9.4195532 156.39207424 -9.40710369 144.96346659 -9.38676685 133.53473479 C-9.36889558 123.17068889 -9.37199962 112.8068222 -9.39044189 102.44277954 C-9.41184411 90.40968728 -9.41981813 78.37673042 -9.40799284 66.34361219 C-9.4017489 59.97300379 -9.40094708 53.60251886 -9.41413879 47.23191833 C-9.42567268 41.24334709 -9.41771631 35.25511508 -9.39456177 29.26658058 C-9.38926154 27.06550981 -9.39081076 24.86441061 -9.39961243 22.66335106 C-9.4104994 19.66491872 -9.39688684 16.66758198 -9.37689209 13.66921997 C-9.39027642 12.354249 -9.39027642 12.354249 -9.40393114 11.01271296 C-9.35486732 7.23475709 -9.30394156 5.16077432 -7.14152145 1.98224068 C-4.51189733 0.29186766 -3.10773653 0.01503387 0 0 Z " fill="#1D71F7" transform="translate(737.8689575195313,1400.4786071777344)"/>
<path d="M0 0 C0.99391327 -0.00320648 1.98782655 -0.00641296 3.0118584 -0.0097166 C6.35689733 -0.01804681 9.70175861 -0.01208167 13.04680061 -0.00622082 C15.46341162 -0.00924012 17.88002167 -0.01312848 20.29663002 -0.01781338 C25.55838331 -0.02597396 30.82008417 -0.027886 36.08183861 -0.02431011 C43.90629512 -0.01900663 51.7307139 -0.02509484 59.5551663 -0.03339304 C74.34207794 -0.04864381 89.12897247 -0.05033701 103.91589032 -0.04787002 C115.33349287 -0.04603825 126.75108979 -0.04779452 138.16869164 -0.05209446 C139.80832695 -0.05269686 141.44796227 -0.05329806 143.08759759 -0.05389806 C145.55829152 -0.0548053 148.02898546 -0.05571397 150.49967939 -0.05663041 C173.47488926 -0.06506162 196.45009702 -0.06939448 219.42530823 -0.06522369 C220.72484563 -0.06498913 220.72484563 -0.06498913 222.05063631 -0.06474983 C226.44180554 -0.06394403 230.83297475 -0.06309826 235.22414397 -0.06223653 C236.53232251 -0.06197989 236.53232251 -0.06197989 237.8669289 -0.06171808 C239.63056587 -0.06137142 241.39420284 -0.06102289 243.15783981 -0.06067249 C270.60262046 -0.05531478 298.04736898 -0.06324644 325.49214363 -0.08170605 C356.31819416 -0.10241559 387.14422479 -0.11315077 417.97028267 -0.10913056 C421.25626762 -0.10873521 424.54225258 -0.10837366 427.82823753 -0.10803318 C428.63734533 -0.10794245 429.44645312 -0.10785172 430.28007934 -0.10775824 C442.50173481 -0.10659159 454.72337022 -0.11324568 466.94502068 -0.1238451 C480.84231038 -0.13588537 494.73955582 -0.13746961 508.63684617 -0.12505493 C516.41592376 -0.11841702 524.19489557 -0.12007881 531.97396474 -0.13364345 C537.77870069 -0.14283842 543.5833501 -0.13639327 549.38808204 -0.12379565 C551.73930799 -0.12113292 554.09054621 -0.12356428 556.44176017 -0.13153151 C559.63232682 -0.14159472 562.82233446 -0.13325177 566.01287842 -0.12025452 C566.93029365 -0.12756386 567.84770889 -0.13487321 568.79292458 -0.14240405 C580.13302633 -0.04634778 590.21789803 5.15752269 598.25728035 13.06697559 C601.13228035 16.06783965 601.13228035 16.06783965 601.13228035 17.25447559 C599.94131414 17.25257699 598.75034792 17.25067839 597.52329183 17.24872226 C545.03032202 17.16536876 492.53734642 17.08823109 440.04432869 17.0427599 C439.24948366 17.04206961 438.45463864 17.04137932 437.6357074 17.04066812 C420.36116631 17.02570323 403.08662449 17.01185237 385.81208159 16.99914895 C377.34052659 16.99291232 368.86897178 16.98642954 360.39741707 16.97981739 C359.55440006 16.9791636 358.71138304 16.9785098 357.84282006 16.97783619 C330.5231474 16.95653328 303.20352647 16.91897959 275.88388515 16.87298949 C247.80704805 16.82581061 219.73023958 16.79504468 191.65336351 16.78490064 C187.68678931 16.78345989 183.72021521 16.78183171 179.75364113 16.78008938 C178.97297018 16.77975226 178.19229924 16.77941515 177.3879716 16.77906782 C164.82639469 16.77316154 152.26490637 16.7499775 139.70336557 16.72031542 C127.07168046 16.69085704 114.44008308 16.67964123 101.80836484 16.68696871 C94.96543294 16.69043448 88.1227381 16.68588948 81.27985382 16.65844822 C75.01355581 16.63410673 68.74769217 16.63289455 62.48137411 16.64998112 C60.21602553 16.65209274 57.95064979 16.64575828 55.68535462 16.63005968 C39.8638858 16.52680321 28.1867754 17.27142835 16.31978035 28.89119434 C3.96117166 42.24290552 3.11030987 61.44335341 0.44478035 78.75447559 C0.09890223 80.96374837 -0.24779877 83.17289245 -0.59525871 85.381917 C-1.32388851 90.01644974 -2.04952165 94.65143779 -2.77348137 99.28670216 C-3.81904216 105.96385689 -4.88757285 112.63714459 -5.9653759 119.30916309 C-6.14056252 120.3936977 -6.31574913 121.47823231 -6.49624443 122.5956316 C-6.8549547 124.81544062 -7.2137352 127.0352383 -7.57258415 129.25502491 C-10.39288088 146.71298216 -13.17685914 164.17648042 -15.93021965 181.64510059 C-16.06199356 182.48092796 -16.19376747 183.31675533 -16.32953453 184.1779108 C-17.63842094 192.48062947 -18.94597318 200.78355467 -20.24933815 209.08714199 C-23.34894452 228.82812117 -26.53887016 248.55072537 -29.86771965 268.25447559 C-30.19771965 268.25447559 -30.52771965 268.25447559 -30.86771965 268.25447559 C-31.00473629 236.99244647 -31.11085023 205.7304971 -31.17411163 174.46823879 C-31.18161544 170.77344874 -31.18938141 167.07865929 -31.19730949 163.38387012 C-31.19888336 162.648336 -31.20045722 161.91280188 -31.20207877 161.15497884 C-31.22815272 149.26135088 -31.27544128 137.36789777 -31.33063643 125.47437337 C-31.38684048 113.26115231 -31.42009234 101.04802253 -31.43225062 88.83467746 C-31.44046382 81.30453589 -31.46635838 73.77488863 -31.51521845 66.2448993 C-31.55082697 60.46083241 -31.5544269 54.67707889 -31.54636574 48.89292431 C-31.54801146 46.52747469 -31.55988058 44.16200572 -31.5829525 41.79666805 C-31.80346727 18.0156883 -31.80346727 18.0156883 -24.86771965 9.25447559 C-17.25125916 1.82229063 -10.41806881 -0.04967249 0 0 Z " fill="#1D71F7" transform="translate(809.8677196502686,684.7455244064331)"/>
</svg>
